<?xml version="1.0" encoding="utf-8"?>
<!-- Generator: Adobe Illustrator 17.0.0, SVG Export Plug-In . SVG Version: 6.00 Build 0)  -->
<svg version="1.2" baseProfile="tiny" id="Layer_1" xmlns="http://www.w3.org/2000/svg" xmlns:xlink="http://www.w3.org/1999/xlink"
	 x="0px" y="0px" width="99px" height="40px" viewBox="0 0 99 40" xml:space="preserve">
<g>
	<path d="M13.883,27.413h12.204v2.691H10.712V5.149h3.171V27.413z"/>
	<path d="M30.475,20.661c0-1.337,0.194-2.579,0.583-3.728c0.388-1.148,0.945-2.146,1.671-2.991c0.725-0.846,1.608-1.511,2.647-1.997
		c1.041-0.485,2.211-0.729,3.514-0.729c1.314,0,2.494,0.243,3.539,0.729c1.047,0.486,1.932,1.151,2.658,1.997
		c0.725,0.846,1.281,1.843,1.67,2.991s0.584,2.391,0.584,3.728v0.376c0,1.337-0.195,2.577-0.584,3.72s-0.945,2.137-1.67,2.982
		c-0.727,0.846-1.609,1.508-2.648,1.988c-1.041,0.479-2.211,0.72-3.514,0.72c-1.314,0-2.494-0.24-3.539-0.72
		c-1.046-0.48-1.932-1.143-2.657-1.988c-0.726-0.846-1.283-1.84-1.671-2.982c-0.389-1.143-0.583-2.383-0.583-3.72V20.661z
		 M33.646,21.037c0,0.915,0.109,1.786,0.326,2.614c0.217,0.828,0.546,1.557,0.985,2.186c0.439,0.628,0.992,1.125,1.654,1.491
		c0.662,0.365,1.434,0.548,2.314,0.548c0.867,0,1.631-0.183,2.287-0.548c0.658-0.366,1.205-0.863,1.646-1.491
		c0.439-0.629,0.768-1.357,0.984-2.186s0.326-1.699,0.326-2.614v-0.376c0-0.902-0.111-1.768-0.334-2.597
		c-0.223-0.828-0.555-1.557-0.994-2.186c-0.439-0.628-0.988-1.128-1.645-1.499c-0.658-0.371-1.426-0.558-2.307-0.558
		c-0.879,0-1.645,0.187-2.297,0.558c-0.65,0.371-1.197,0.871-1.637,1.499c-0.439,0.629-0.768,1.357-0.985,2.186
		c-0.217,0.829-0.326,1.694-0.326,2.597V21.037z"/>
	<path d="M51.849,20.678c0-1.383,0.169-2.654,0.506-3.813c0.337-1.16,0.825-2.157,1.466-2.991c0.64-0.834,1.416-1.485,2.331-1.954
		c0.914-0.469,1.947-0.703,3.102-0.703c1.143,0,2.146,0.203,3.009,0.609c0.862,0.405,1.597,0.991,2.202,1.757l0.154-2.022h2.88
		v18.15c0,1.223-0.192,2.309-0.574,3.257c-0.384,0.948-0.92,1.754-1.611,2.417c-0.691,0.662-1.518,1.165-2.477,1.508
		c-0.96,0.343-2.022,0.515-3.188,0.515c-0.479,0-1.028-0.055-1.646-0.163s-1.242-0.286-1.877-0.531
		c-0.634-0.246-1.245-0.574-1.834-0.985s-1.094-0.92-1.517-1.525l1.646-1.902c0.389,0.468,0.788,0.865,1.199,1.19
		c0.412,0.326,0.829,0.586,1.252,0.78c0.422,0.194,0.845,0.334,1.269,0.42c0.422,0.086,0.845,0.129,1.268,0.129
		c0.755,0,1.435-0.109,2.04-0.326s1.123-0.534,1.551-0.951c0.429-0.417,0.757-0.935,0.985-1.551
		c0.229-0.617,0.344-1.326,0.344-2.126v-1.594c-0.617,0.709-1.346,1.249-2.186,1.62s-1.814,0.557-2.923,0.557
		c-1.131,0-2.153-0.24-3.067-0.72c-0.915-0.48-1.688-1.143-2.323-1.988c-0.634-0.846-1.122-1.843-1.465-2.991
		s-0.515-2.385-0.515-3.711V20.678z M55.02,21.037c0,0.903,0.095,1.76,0.283,2.571s0.485,1.525,0.891,2.143
		c0.406,0.617,0.923,1.105,1.552,1.466c0.628,0.359,1.382,0.539,2.263,0.539c0.548,0,1.042-0.065,1.482-0.196
		c0.439-0.132,0.834-0.317,1.183-0.558s0.66-0.525,0.934-0.856c0.274-0.332,0.515-0.697,0.721-1.098v-8.5
		c-0.206-0.389-0.446-0.743-0.721-1.063c-0.273-0.32-0.588-0.598-0.942-0.831c-0.354-0.234-0.748-0.417-1.183-0.549
		s-0.914-0.197-1.439-0.197c-0.892,0-1.654,0.183-2.288,0.549c-0.635,0.365-1.154,0.859-1.561,1.482
		c-0.405,0.623-0.702,1.343-0.891,2.159c-0.188,0.817-0.283,1.678-0.283,2.58V21.037z"/>
	<path d="M72.605,20.661c0-1.337,0.194-2.579,0.583-3.728s0.945-2.146,1.671-2.991s1.608-1.511,2.648-1.997
		c1.04-0.485,2.211-0.729,3.514-0.729c1.313,0,2.494,0.243,3.539,0.729c1.046,0.486,1.932,1.151,2.657,1.997
		s1.282,1.843,1.671,2.991s0.583,2.391,0.583,3.728v0.376c0,1.337-0.194,2.577-0.583,3.72s-0.945,2.137-1.671,2.982
		s-1.608,1.508-2.648,1.988c-1.04,0.479-2.211,0.72-3.514,0.72c-1.314,0-2.494-0.24-3.539-0.72c-1.046-0.48-1.932-1.143-2.657-1.988
		s-1.282-1.84-1.671-2.982s-0.583-2.383-0.583-3.72V20.661z M75.776,21.037c0,0.915,0.108,1.786,0.326,2.614
		c0.217,0.828,0.545,1.557,0.985,2.186c0.439,0.628,0.991,1.125,1.654,1.491c0.662,0.365,1.434,0.548,2.313,0.548
		c0.868,0,1.631-0.183,2.288-0.548c0.657-0.366,1.205-0.863,1.646-1.491c0.439-0.629,0.769-1.357,0.985-2.186
		s0.326-1.699,0.326-2.614v-0.376c0-0.902-0.111-1.768-0.335-2.597c-0.223-0.828-0.554-1.557-0.993-2.186
		c-0.44-0.628-0.989-1.128-1.646-1.499c-0.657-0.371-1.426-0.558-2.306-0.558s-1.646,0.187-2.297,0.558s-1.197,0.871-1.637,1.499
		c-0.44,0.629-0.769,1.357-0.985,2.186c-0.218,0.829-0.326,1.694-0.326,2.597V21.037z"/>
</g>
</svg>
